<?xml version="1.0" encoding="UTF-8"?><svg id="Layer_1" xmlns="http://www.w3.org/2000/svg" width="250" height="250" viewBox="0 0 250 250"><path d="m71.55,177.96c-1.2,0-2.1-.24-2.7-.72-.6-.48-.9-1.17-.9-2.07s.24-1.89.72-2.97l51.48-119.52c.6-1.32,1.32-2.28,2.16-2.88.84-.6,1.68-.9,2.52-.9.96,0,1.86.3,2.7.9.84.6,1.5,1.56,1.98,2.88l51.48,119.52c.48,1.08.72,2.07.72,2.97s-.24,1.59-.72,2.07c-.48.48-1.32.72-2.52.72s-2.19-.36-2.97-1.08c-.78-.72-1.41-1.62-1.89-2.7l-14.58-34.02,4.86,1.62h-78.48l5.04-1.62-14.58,34.02c-.48,1.32-1.14,2.28-1.98,2.88-.84.6-1.62.9-2.34.9Zm53.1-117.72l-32.22,75.6-3.96-1.08h72.36l-3.6,1.08-32.22-75.6h-.36Z"/><path d="m53.93,210c-.35,0-.62-.08-.83-.23-.21-.16-.33-.36-.36-.62-.04-.26.02-.55.16-.88l7.05-15.81c.17-.42.39-.71.66-.88.27-.17.57-.26.9-.26s.6.09.87.26c.27.17.49.47.66.88l7.05,15.81c.16.33.22.63.18.9-.04.27-.15.48-.34.62-.19.15-.46.22-.81.22-.38,0-.68-.09-.91-.29-.23-.19-.42-.49-.6-.88l-1.82-4.21,1.22.73h-11.08l1.2-.73-1.79,4.21c-.17.42-.36.71-.57.9-.21.18-.49.27-.83.27Zm7.51-15.52l-3.93,9.31-.65-.62h9.18l-.6.62-3.95-9.31h-.05Z"/><path d="m74.52,210c-.43,0-.77-.12-1-.36-.23-.24-.35-.58-.35-1.01v-15.94c0-.45.12-.79.35-1.03s.57-.35,1-.35.77.12,1,.35c.23.23.35.58.35,1.03v15.94c0,.43-.11.77-.34,1.01-.23.24-.56.36-1.01.36Z"/><path d="m80.47,209.82c-.35,0-.63-.07-.84-.21s-.36-.33-.44-.58c-.08-.25-.08-.53,0-.83.08-.3.24-.62.48-.95l10.4-14.4v.91h-9.8c-.4,0-.7-.1-.91-.3s-.31-.48-.31-.84.1-.64.31-.83.51-.29.91-.29h11.05c.35,0,.63.07.86.21s.38.33.46.57.08.52,0,.83c-.08.31-.24.63-.48.96l-10.43,14.4v-.91h10.19c.4,0,.7.09.91.29.21.19.31.47.31.83s-.1.65-.31.84-.51.3-.91.3h-11.44Z"/><path d="m96.98,210c-.43,0-.77-.12-1-.36-.23-.24-.35-.58-.35-1.01v-15.94c0-.45.12-.79.35-1.03s.57-.35,1-.35.77.12,1,.35c.23.23.35.58.35,1.03v15.94c0,.43-.11.77-.34,1.01-.23.24-.56.36-1.01.36Z"/><path d="m103.95,210c-.43,0-.77-.12-1-.36-.23-.24-.35-.58-.35-1.01v-15.96c0-.45.12-.79.35-1.01.23-.23.57-.34,1-.34s.77.11,1,.34c.23.23.35.56.35,1.01v7.07h.05l7.98-7.72c.26-.24.51-.42.74-.53.23-.11.5-.17.79-.17.4,0,.69.1.87.3.18.2.25.44.22.71-.04.28-.18.55-.44.81l-8.29,7.9.05-1.33,8.63,8.32c.31.29.48.6.49.91.02.31-.08.57-.29.77s-.5.3-.88.3c-.35,0-.62-.07-.83-.21-.21-.14-.45-.34-.73-.6l-8.32-7.93h-.05v7.36c0,.43-.11.77-.34,1.01-.23.24-.56.36-1.01.36Z"/><path d="m126.52,210.06c-1.73,0-3.25-.39-4.54-1.16s-2.29-1.86-2.99-3.28c-.7-1.41-1.05-3.07-1.05-4.98,0-1.44.2-2.73.6-3.89.4-1.15.97-2.14,1.72-2.96.75-.82,1.65-1.45,2.7-1.88,1.06-.43,2.24-.65,3.56-.65,1.75,0,3.27.38,4.55,1.14,1.28.76,2.28,1.85,2.98,3.25s1.05,3.06,1.05,4.97c0,1.44-.2,2.74-.6,3.9-.4,1.16-.98,2.16-1.73,2.99s-1.66,1.47-2.72,1.9c-1.06.43-2.24.65-3.54.65Zm0-2.34c1.21,0,2.25-.28,3.11-.83.86-.55,1.52-1.36,1.98-2.42.46-1.06.69-2.33.69-3.82,0-2.24-.5-3.97-1.51-5.2-1-1.23-2.43-1.85-4.26-1.85-1.21,0-2.25.27-3.11.82-.86.55-1.52,1.35-1.98,2.41-.46,1.06-.69,2.33-.69,3.82,0,2.22.51,3.95,1.52,5.2,1.01,1.25,2.43,1.87,4.25,1.87Z"/><path d="m145.24,210c-.38,0-.7-.09-.95-.27-.25-.18-.46-.46-.61-.82l-6.99-15.83c-.14-.36-.17-.68-.1-.94.07-.26.21-.46.43-.61s.48-.22.79-.22c.4,0,.7.09.91.26.21.17.38.43.52.78l6.55,15.18h-.96l6.5-15.21c.16-.33.34-.58.56-.75.22-.17.52-.26.9-.26.31,0,.57.07.77.22s.33.35.38.61c.05.26,0,.57-.16.94l-6.97,15.83c-.16.36-.36.64-.6.82-.24.18-.56.27-.96.27Z"/><path d="m157.82,210c-.43,0-.77-.12-1-.36-.23-.24-.35-.58-.35-1.01v-15.94c0-.45.12-.79.35-1.03s.57-.35,1-.35.77.12,1,.35c.23.23.35.58.35,1.03v15.94c0,.43-.11.77-.34,1.01-.23.24-.56.36-1.01.36Z"/><path d="m171.65,210.06c-1.85,0-3.44-.38-4.76-1.14s-2.33-1.85-3.03-3.26c-.7-1.41-1.05-3.08-1.05-5,0-1.44.2-2.73.6-3.89.4-1.15.97-2.14,1.73-2.96.75-.82,1.68-1.45,2.78-1.88,1.1-.43,2.34-.65,3.73-.65,1.02,0,2.01.14,2.95.42.94.28,1.76.68,2.46,1.2.29.19.49.42.58.69s.11.52.05.77c-.06.24-.18.45-.35.61-.17.17-.39.26-.66.27-.27.02-.56-.08-.87-.29-.57-.43-1.21-.75-1.9-.96-.69-.21-1.42-.31-2.18-.31-1.32,0-2.43.27-3.33.82-.9.55-1.59,1.34-2.05,2.38s-.7,2.3-.7,3.8.23,2.76.7,3.81,1.15,1.85,2.05,2.39c.9.55,2.01.82,3.33.82.76,0,1.5-.11,2.2-.33.7-.22,1.37-.54,1.99-.97.31-.19.59-.28.84-.26.25.02.46.1.64.26s.29.35.35.58c.06.23.05.48-.03.73-.08.25-.25.46-.51.64-.71.57-1.55,1-2.52,1.3s-1.98.44-3.04.44Z"/><path d="m182.37,210c-.43,0-.77-.12-1-.36-.23-.24-.35-.58-.35-1.01v-15.94c0-.45.12-.79.35-1.03s.57-.35,1-.35.77.12,1,.35c.23.23.35.58.35,1.03v6.71h10.27v-6.71c0-.45.12-.79.35-1.03.23-.23.57-.35,1-.35s.76.12.99.35c.22.23.34.58.34,1.03v15.94c0,.43-.11.77-.34,1.01-.23.24-.56.36-.99.36s-.77-.12-1-.36c-.23-.24-.35-.58-.35-1.01v-6.97h-10.27v6.97c0,.43-.11.77-.34,1.01-.23.24-.56.36-1.01.36Z"/></svg>